<svg width="25" height="26" viewBox="0 0 25 26" fill="none" xmlns="http://www.w3.org/2000/svg">
<path d="M8.59998 11.4802V9.48022H6.59998V13.9802C6.59998 14.2563 6.37612 14.4802 6.09998 14.4802C5.82384 14.4802 5.59998 14.2563 5.59998 13.9802V8.48022H8.59998C8.59998 6.0765 10.5522 4.48022 12.6 4.48022C14.6575 4.48022 16.6 6.18578 16.6 8.48022H19.6V20.9802C19.6 21.8086 18.9284 22.4802 18.1 22.4802H13.1C12.8239 22.4802 12.6 22.2563 12.6 21.9802C12.6 21.7041 12.8239 21.4802 13.1 21.4802H18.1C18.3761 21.4802 18.6 21.2563 18.6 20.9802V9.48022H16.6V11.4802H15.6V9.48022H9.59998V11.4802H8.59998ZM12.6 5.48022C11.0477 5.48022 9.59998 6.68394 9.59998 8.48022H15.6C15.6 6.77466 14.1425 5.48022 12.6 5.48022Z" fill="#1F2026"/>
<path d="M8.09998 15.4802C8.37612 15.4802 8.59998 15.7041 8.59998 15.9802V18.4802H11.1C11.3761 18.4802 11.6 18.7041 11.6 18.9802C11.6 19.2563 11.3761 19.4802 11.1 19.4802H8.59998V21.9802C8.59998 22.2563 8.37612 22.4802 8.09998 22.4802C7.82384 22.4802 7.59998 22.2563 7.59998 21.9802V19.4802H5.09998C4.82384 19.4802 4.59998 19.2563 4.59998 18.9802C4.59998 18.7041 4.82384 18.4802 5.09998 18.4802H7.59998V15.9802C7.59998 15.7041 7.82384 15.4802 8.09998 15.4802Z" fill="#1F2026"/>
</svg>
