<svg width="25" height="25" viewBox="0 0 25 25" fill="none" xmlns="http://www.w3.org/2000/svg">
<path d="M8.54998 4.9502C11.1179 4.9502 12.6 7.10254 12.6 7.10254C12.6 7.10254 14.085 4.9502 16.65 4.9502C19.305 4.9502 21.6 7.0202 21.6 9.9002C21.6 14.1307 15.1604 18.5699 12.9651 20.5105C12.7582 20.6934 12.4418 20.6934 12.2349 20.5105C10.0405 18.5711 3.59998 14.1305 3.59998 9.9002C3.59998 7.0202 5.89498 4.9502 8.54998 4.9502Z" fill="white" fill-opacity="0.6"/>
<path d="M3.59998 9.81506C3.59998 7.15317 5.75015 4.9502 8.46484 4.9502C10.5868 4.9502 11.9592 6.30896 12.6 7.13693C13.2408 6.30896 14.6132 4.9502 16.7351 4.9502C19.4506 4.9502 21.6 7.15322 21.6 9.81506C21.6 10.9801 21.1328 12.1364 20.4534 13.2152C19.7716 14.2978 18.852 15.3405 17.89 16.2879C16.5567 17.601 15.0757 18.7889 14.0134 19.6409C13.5618 20.0031 13.1859 20.3046 12.9293 20.5292C12.7407 20.6941 12.4592 20.6941 12.2707 20.5292C12.014 20.3046 11.6381 20.0031 11.1866 19.6409C10.1243 18.7889 8.64324 17.601 7.30995 16.2879C6.348 15.3405 5.42834 14.2978 4.74657 13.2152C4.06722 12.1364 3.59998 10.9801 3.59998 9.81506ZM8.46484 5.9502C6.30927 5.9502 4.59998 7.69858 4.59998 9.81506C4.59998 10.7176 4.96551 11.6863 5.59275 12.6823C6.21757 13.6744 7.07831 14.6562 8.01163 15.5754C9.31031 16.8544 10.6842 17.9552 11.7339 18.7963C12.0573 19.0554 12.3498 19.2898 12.6 19.4972C12.8501 19.2898 13.1427 19.0554 13.466 18.7963C14.5158 17.9552 15.8897 16.8544 17.1883 15.5754C18.1217 14.6562 18.9824 13.6744 19.6072 12.6823C20.2345 11.6863 20.6 10.7176 20.6 9.81506C20.6 7.69853 18.8914 5.9502 16.7351 5.9502C14.6406 5.9502 13.4181 7.65231 13.1033 8.16048C12.8727 8.5327 12.3272 8.53269 12.0967 8.16047C11.7819 7.6523 10.5594 5.9502 8.46484 5.9502Z" fill="#1F2026"/>
</svg>
